<?xml version="1.0" standalone="no"?>
<!DOCTYPE svg PUBLIC "-//W3C//DTD SVG 20010904//EN"
 "http://www.w3.org/TR/2001/REC-SVG-20010904/DTD/svg10.dtd">
<svg version="1.0" xmlns="http://www.w3.org/2000/svg"
 width="205.000000pt" height="245.000000pt" viewBox="0 0 205.000000 245.000000"
 preserveAspectRatio="xMidYMid meet">

<g transform="translate(0.000000,245.000000) scale(0.100000,-0.100000)"
fill="#000000" stroke="none">
<path d="M19 2433 c-12 -13 -15 -176 -17 -947 -2 -512 0 -955 3 -984 11 -94 9
-93 470 -257 226 -81 432 -154 459 -163 40 -14 52 -23 64 -52 13 -32 16 -33
26 -16 27 45 50 58 206 111 480 165 738 259 763 277 59 42 57 2 57 1045 0 851
-2 961 -16 981 l-15 22 -993 0 c-912 0 -995 -1 -1007 -17z m1991 -983 c0 -707
-3 -966 -12 -985 -18 -41 -96 -72 -693 -275 -148 -50 -274 -95 -279 -100 -6
-6 -14 -6 -21 0 -6 5 -211 81 -455 169 -245 87 -453 162 -463 166 -48 19 -47
-1 -47 1025 l0 960 985 0 985 0 0 -960z"/>
<path d="M894 2119 c-224 -37 -438 -197 -538 -400 -25 -52 -54 -123 -63 -159
-23 -88 -23 -272 1 -359 68 -252 248 -445 491 -527 108 -36 276 -44 391 -20
262 57 472 251 554 511 34 107 38 274 11 388 -58 243 -220 430 -453 524 -114
46 -270 63 -394 42z m177 -168 c60 -61 23 -156 -61 -156 -35 0 -47 6 -71 33
-33 36 -36 60 -14 102 30 59 98 68 146 21z m167 -45 c0 -18 5 -43 11 -54 13
-25 72 -46 103 -37 l23 7 -22 -23 c-57 -59 -168 9 -148 91 6 22 23 50 30 50 2
0 3 -15 3 -34z m-554 -68 c9 -38 53 -40 62 -4 3 14 3 30 -1 35 -3 6 -2 11 4
11 21 0 33 -40 21 -69 -9 -23 -4 -45 40 -161 28 -74 58 -142 67 -152 20 -23
43 -23 306 -2 161 13 213 14 233 5 51 -23 128 54 94 94 -18 21 -59 19 -137 -9
-196 -71 -354 -96 -382 -63 -17 22 -3 27 58 21 48 -5 77 1 206 42 225 71 218
69 253 55 44 -18 60 -62 39 -106 -9 -18 -30 -41 -47 -52 -26 -15 -30 -22 -24
-43 13 -45 7 -71 -31 -126 -43 -62 -43 -52 21 -267 18 -61 30 -115 28 -119
-10 -16 -43 -8 -42 10 0 18 -72 214 -98 264 -15 28 -16 29 -29 11 -8 -10 -40
-78 -72 -152 -31 -73 -63 -136 -70 -138 -7 -3 -20 -2 -29 1 -15 6 -15 8 1 26
19 21 115 293 115 328 0 12 -7 25 -16 29 -9 3 -77 -8 -152 -26 -104 -25 -146
-31 -183 -26 l-49 7 50 -141 c27 -78 54 -150 60 -160 15 -28 13 -31 -20 -31
-18 0 -30 5 -30 13 0 17 -85 248 -104 285 l-14 27 -10 -25 c-5 -14 -31 -72
-57 -130 -26 -58 -51 -118 -54 -135 -6 -25 -12 -31 -39 -33 -34 -3 -41 8 -17
28 8 7 38 83 66 169 65 197 73 285 39 406 -12 44 -31 99 -42 123 -18 36 -24
42 -52 42 -20 0 -38 8 -50 22 -19 22 -19 22 17 54 21 17 37 39 37 48 0 21 22
65 26 51 1 -6 5 -22 8 -37z"/>
</g>
</svg>
